<svg width="122" height="17" viewBox="0 0 122 17" fill="none" xmlns="http://www.w3.org/2000/svg">
<g clip-path="url(#clip0_32_68)">
<path d="M77.4122 7.439C77.7713 6.75429 78.6176 6.49038 79.3023 6.84956L91.8772 13.4458C92.5619 13.805 92.8258 14.6512 92.4667 15.336C92.1075 16.0207 91.2613 16.2846 90.5765 15.9254L78.0016 9.32912C77.3169 8.96995 77.053 8.12371 77.4122 7.439Z" fill="#2478F8"/>
</g>
<path d="M88.8444 1.50195L91.6074 4.2832L91.6074 6.68147C91.6083 7.25037 91.4969 7.81386 91.2796 8.33962C91.0623 8.86539 90.7434 9.34309 90.3411 9.74537C89.9388 10.1476 89.4611 10.4666 88.9353 10.6839C88.4096 10.9012 87.8461 11.0126 87.2772 11.0117L70.3424 11.0117C69.7735 11.0126 69.21 10.9012 68.6842 10.6839C68.1585 10.4666 67.6807 10.1476 67.2785 9.74537C66.8762 9.34309 66.5573 8.86539 66.34 8.33962C66.1227 7.81386 66.0112 7.25037 66.0121 6.68147L66.34 4.44262L68.6842 2.5975L88.8444 1.50195ZM68.6842 2.5975L68.7791 6.68147C68.7802 7.09716 68.9458 7.49552 69.2397 7.78946C69.5336 8.0834 69.932 8.249 70.3477 8.25005L87.2758 8.25005C87.6915 8.249 88.0899 8.0834 88.3838 7.78946C88.6778 7.49552 88.8434 7.09716 88.8444 6.68147V1.50195L68.6842 2.5975Z" fill="#2478F8"/>
<path d="M68.7747 11V16.0113H66.0117V4.3322C66.0108 3.7633 66.1223 3.19982 66.3396 2.67405C66.5569 2.14829 66.8758 1.67058 67.2781 1.2683C67.6803 0.866029 68.158 0.547098 68.6838 0.329794C69.2096 0.112489 69.7731 0.00108154 70.342 0.00195826H87.2768C87.8457 0.00108154 88.4092 0.112489 88.9349 0.329794C89.4607 0.547098 89.9384 0.866029 90.3407 1.2683C90.7429 1.67058 91.0619 2.14829 91.2792 2.67405C91.4965 3.19982 91.6079 3.7633 91.607 4.3322L90.0117 8.00195L86.499 11H68.7747ZM88.84 8.37482V4.3322C88.839 3.91651 88.6734 3.51815 88.3794 3.22421C88.0855 2.93027 87.6871 2.76468 87.2714 2.76362H70.3433C69.9276 2.76468 69.5292 2.93027 69.2353 3.22421C68.9414 3.51815 68.7758 3.91651 68.7747 4.3322V8.37482H88.84Z" fill="#2478F8"/>
<path d="M59.8327 1.5L62.5957 4.28125L62.5957 6.67952C62.5966 7.24842 62.4852 7.8119 62.2679 8.33767C62.0506 8.86343 61.7316 9.34114 61.3294 9.74342C60.9271 10.1457 60.4494 10.4646 59.9236 10.6819C59.3978 10.8992 58.8344 11.0106 58.2655 11.0098L41.3306 11.0098C40.7617 11.0106 40.1983 10.8992 39.6725 10.6819C39.1467 10.4646 38.669 10.1457 38.2668 9.74342C37.8645 9.34114 37.5455 8.86343 37.3282 8.33767C37.1109 7.8119 36.9995 7.24842 37.0004 6.67952L37.3282 4.44066L39.6725 2.59554L59.8327 1.5ZM39.6725 2.59554L39.7674 6.67952C39.7684 7.09521 39.934 7.49357 40.228 7.78751C40.5219 8.08145 40.9203 8.24704 41.336 8.2481L58.2641 8.2481C58.6798 8.24704 59.0782 8.08145 59.3721 7.78751C59.6661 7.49357 59.8317 7.09521 59.8327 6.67952V1.5L39.6725 2.59554Z" fill="#2478F8"/>
<path d="M39.763 10.998V16.0094H37V4.33025C36.9991 3.76135 37.1105 3.19786 37.3278 2.6721C37.5451 2.14633 37.8641 1.66862 38.2663 1.26635C38.6686 0.864076 39.1463 0.545145 39.6721 0.327841C40.1979 0.110536 40.7613 -0.000871584 41.3302 5.13445e-06H58.2651C58.834 -0.000871584 59.3974 0.110536 59.9232 0.327841C60.449 0.545145 60.9267 0.864076 61.329 1.26635C61.7312 1.66862 62.0502 2.14633 62.2675 2.6721C62.4848 3.19786 62.5962 3.76135 62.5953 4.33025L61 8L57.4873 10.998H39.763ZM59.8283 8.37287V4.33025C59.8273 3.91456 59.6617 3.51619 59.3677 3.22226C59.0738 2.92832 58.6754 2.76272 58.2597 2.76167H41.3316C40.9159 2.76272 40.5175 2.92832 40.2236 3.22226C39.9297 3.51619 39.7641 3.91456 39.763 4.33025V8.37287H59.8283Z" fill="#2478F8"/>
<path d="M98.763 11.1359L96 11.1778L96 4.33025C95.9991 3.76135 96.1105 3.19786 96.3278 2.6721C96.5451 2.14633 96.8641 1.66862 97.2663 1.26635C97.6686 0.864076 98.1463 0.545145 98.6721 0.327841C99.1979 0.110536 99.7613 -0.000871584 100.33 5.13445e-06H117.265C117.834 -0.000871584 118.397 0.110536 118.923 0.327841C119.449 0.545145 119.927 0.864076 120.329 1.26635C120.731 1.66862 121.05 2.14633 121.267 2.6721C121.485 3.19786 121.596 3.76135 121.595 4.33025V11.1359H118.828H98.763ZM118.828 11.1359V4.33025C118.827 3.91456 118.662 3.51619 118.368 3.22226C118.074 2.92832 117.675 2.76272 117.26 2.76167H100.332C99.9159 2.76272 99.5175 2.92832 99.2236 3.22226C98.9297 3.51619 98.7641 3.91456 98.763 4.33025V11.1359H118.828Z" fill="#2478F8"/>
<path d="M118.833 4.87391H121.596L121.596 11.6795C121.597 12.2484 121.485 12.8119 121.268 13.3377C121.051 13.8634 120.732 14.3411 120.329 14.7434C119.927 15.1457 119.449 15.4646 118.924 15.6819C118.398 15.8992 117.834 16.0106 117.265 16.0098L100.331 16.0098C99.7617 16.0106 99.1983 15.8992 98.6725 15.6819C98.1467 15.4646 97.669 15.1457 97.2668 14.7434C96.8645 14.3411 96.5455 13.8634 96.3282 13.3377C96.1109 12.8119 95.9995 12.2484 96.0004 11.6795V4.87391H98.7674L118.833 4.87391ZM98.7674 4.87391V11.6795C98.7684 12.0952 98.934 12.4936 99.228 12.7875C99.5219 13.0814 99.9203 13.247 100.336 13.2481L117.264 13.2481C117.68 13.247 118.078 13.0814 118.372 12.7875C118.666 12.4936 118.832 12.0952 118.833 11.6795V4.87391L98.7674 4.87391Z" fill="#2478F8"/>
<rect x="30" width="3" height="16" fill="#2478F8"/>
<g clip-path="url(#clip1_32_68)">
<path d="M22.8327 1.5L25.5957 4.28125V6.67952C25.5966 7.24842 25.4852 7.81191 25.2678 8.33767C25.0505 8.86343 24.7316 9.34114 24.3293 9.74342C23.9271 10.1457 23.4494 10.4646 22.9236 10.6819C22.3978 10.8992 21.8343 11.0106 21.2654 11.0098H4.33063C3.76173 11.0106 3.19825 10.8992 2.67249 10.6819C2.14672 10.4646 1.66901 10.1457 1.26674 9.74342C0.864464 9.34114 0.54553 8.86343 0.328226 8.33767C0.110922 7.81191 -0.000487619 7.24842 0.000389099 6.67952L0.328226 4.44067L2.67249 2.59554L22.8327 1.5ZM2.67249 2.59554L2.76738 6.67952C2.76843 7.09521 2.93403 7.49357 3.22797 7.78751C3.5219 8.08145 3.92027 8.24705 4.33596 8.2481H21.2641C21.6798 8.24705 22.0782 8.08145 22.3721 7.78751C22.666 7.49357 22.8316 7.09521 22.8327 6.67952V1.5L2.67249 2.59554Z" fill="#2478F8"/>
<path d="M3.5 10L2.5 9.5L0 7L5.13445e-06 4.33025C-0.000871584 3.76135 0.110536 3.19786 0.327841 2.6721C0.545145 2.14633 0.864072 1.66862 1.26635 1.26635C1.66862 0.864076 2.14633 0.545145 2.67209 0.327841C3.19786 0.110536 3.76135 -0.000871584 4.33025 5.13445e-06H21.2651C21.834 -0.000871584 22.3974 0.110536 22.9232 0.327841C23.449 0.545145 23.9267 0.864076 24.329 1.26635C24.7312 1.66862 25.0502 2.14633 25.2675 2.6721C25.4848 3.19786 25.5962 3.76135 25.5953 4.33025L24 8L21.5 10.5L3.5 10ZM22.8283 8.37287V4.33025C22.8273 3.91456 22.6617 3.51619 22.3677 3.22226C22.0738 2.92832 21.6754 2.76272 21.2597 2.76167H4.33158C3.91589 2.76272 3.51753 2.92832 3.22359 3.22226C2.92965 3.51619 2.76405 3.91456 2.763 4.33025V8.37287H22.8283Z" fill="#2478F8"/>
</g>
<g clip-path="url(#clip2_32_68)">
<path d="M22.8327 1.5L25.5957 4.28125V6.67952C25.5966 7.24842 25.4852 7.81191 25.2678 8.33767C25.0505 8.86343 24.7316 9.34114 24.3293 9.74342C23.9271 10.1457 23.4494 10.4646 22.9236 10.6819C22.3978 10.8992 21.8343 11.0106 21.2654 11.0098H4.33063C3.76173 11.0106 3.19825 10.8992 2.67249 10.6819C2.14672 10.4646 1.66901 10.1457 1.26674 9.74342C0.864464 9.34114 0.54553 8.86343 0.328226 8.33767C0.110922 7.81191 -0.000487619 7.24842 0.000389099 6.67952L0.328226 4.44067L2.67249 2.59554L22.8327 1.5ZM2.67249 2.59554L2.76738 6.67952C2.76843 7.09521 2.93403 7.49357 3.22797 7.78751C3.5219 8.08145 3.92027 8.24705 4.33596 8.2481H21.2641C21.6798 8.24705 22.0782 8.08145 22.3721 7.78751C22.666 7.49357 22.8316 7.09521 22.8327 6.67952V1.5L2.67249 2.59554Z" fill="#2478F8"/>
<path d="M3.5 10L2.5 9.5L0 7L5.13445e-06 4.33025C-0.000871584 3.76135 0.110536 3.19786 0.327841 2.6721C0.545145 2.14633 0.864072 1.66862 1.26635 1.26635C1.66862 0.864076 2.14633 0.545145 2.67209 0.327841C3.19786 0.110536 3.76135 -0.000871584 4.33025 5.13445e-06H21.2651C21.834 -0.000871584 22.3974 0.110536 22.9232 0.327841C23.449 0.545145 23.9267 0.864076 24.329 1.26635C24.7312 1.66862 25.0502 2.14633 25.2675 2.6721C25.4848 3.19786 25.5962 3.76135 25.5953 4.33025L24 8L21.5 10.5L3.5 10ZM22.8283 8.37287V4.33025C22.8273 3.91456 22.6617 3.51619 22.3677 3.22226C22.0738 2.92832 21.6754 2.76272 21.2597 2.76167H4.33158C3.91589 2.76272 3.51753 2.92832 3.22359 3.22226C2.92965 3.51619 2.76405 3.91456 2.763 4.33025V8.37287H22.8283Z" fill="#2478F8"/>
</g>
<g clip-path="url(#clip3_32_68)">
<path d="M23.2428 7.75L26.0058 10.5313V12.9295C26.0067 13.4984 25.8953 14.0619 25.678 14.5877C25.4607 15.1134 25.1418 15.5911 24.7395 15.9934C24.3372 16.3957 23.8595 16.7146 23.3338 16.9319C22.808 17.1492 22.2445 17.2606 21.6756 17.2598H4.74079C4.17189 17.2606 3.60841 17.1492 3.08264 16.9319C2.55688 16.7146 2.07917 16.3957 1.6769 15.9934C1.27462 15.5911 0.955687 15.1134 0.738382 14.5877C0.521078 14.0619 0.409669 13.4984 0.410545 12.9295L0.738382 10.6907L3.08264 8.84554L23.2428 7.75ZM3.08264 8.84554L3.17754 12.9295C3.17859 13.3452 3.34418 13.7436 3.63812 14.0375C3.93206 14.3314 4.33043 14.497 4.74612 14.4981H21.6743C22.09 14.497 22.4883 14.3314 22.7823 14.0375C23.0762 13.7436 23.2418 13.3452 23.2428 12.9295V7.75L3.08264 8.84554Z" fill="#2478F8"/>
<path d="M3.91016 16.25L2.91016 15.75L0.410156 13.25L0.410161 10.5802C0.409285 10.0113 0.520692 9.44786 0.737997 8.9221C0.955301 8.39633 1.27423 7.91862 1.6765 7.51635C2.07878 7.11408 2.55649 6.79514 3.08225 6.57784C3.60801 6.36054 4.1715 6.24913 4.7404 6.25001H21.6752C22.2441 6.24913 22.8076 6.36054 23.3334 6.57784C23.8591 6.79514 24.3368 7.11408 24.7391 7.51635C25.1414 7.91862 25.4603 8.39633 25.6776 8.9221C25.8949 9.44786 26.0063 10.0113 26.0055 10.5802L24.4102 14.25L21.9102 16.75L3.91016 16.25ZM23.2385 14.6229V10.5802C23.2374 10.1646 23.0718 9.76619 22.7779 9.47226C22.4839 9.17832 22.0856 9.01272 21.6699 9.01167H4.74174C4.32605 9.01272 3.92768 9.17832 3.63375 9.47226C3.33981 9.76619 3.17421 10.1646 3.17315 10.5802V14.6229H23.2385Z" fill="#2478F8"/>
</g>
<g clip-path="url(#clip4_32_68)">
<path d="M3.16731 6.5L0.404316 9.28125V11.6795C0.403439 12.2484 0.514847 12.8119 0.732151 13.3377C0.949455 13.8634 1.26838 14.3411 1.67066 14.7434C2.07293 15.1457 2.55064 15.4646 3.0764 15.6819C3.60217 15.8992 4.16566 16.0106 4.73456 16.0098H21.6694C22.2383 16.0106 22.8017 15.8992 23.3275 15.6819C23.8533 15.4646 24.331 15.1457 24.7333 14.7434C25.1355 14.3411 25.4545 13.8634 25.6718 13.3377C25.8891 12.8119 26.0005 12.2484 25.9996 11.6795L25.6718 9.44067L23.3275 7.59554L3.16731 6.5ZM23.3275 7.59554L23.2326 11.6795C23.2316 12.0952 23.066 12.4936 22.772 12.7875C22.4781 13.0814 22.0797 13.247 21.664 13.2481H4.73589C4.3202 13.247 3.92184 13.0814 3.6279 12.7875C3.33396 12.4936 3.16836 12.0952 3.16731 11.6795V6.5L23.3275 7.59554Z" fill="#2478F8"/>
<path d="M22.5 15L23.5 14.5L26 12L26 9.33025C26.0009 8.76135 25.8895 8.19786 25.6722 7.6721C25.4549 7.14633 25.1359 6.66862 24.7337 6.26635C24.3314 5.86408 23.8537 5.54514 23.3279 5.32784C22.8021 5.11054 22.2387 4.99913 21.6698 5.00001H4.73494C4.16604 4.99913 3.60256 5.11054 3.0768 5.32784C2.55103 5.54514 2.07332 5.86408 1.67105 6.26635C1.26877 6.66862 0.949841 7.14633 0.732536 7.6721C0.515232 8.19786 0.403822 8.76135 0.404699 9.33025L2 13L4.5 15.5L22.5 15ZM3.17169 13.3729V9.33025C3.17274 8.91456 3.33834 8.51619 3.63228 8.22226C3.92621 7.92832 4.32458 7.76272 4.74027 7.76167H21.6684C22.0841 7.76272 22.4825 7.92832 22.7764 8.22226C23.0703 8.51619 23.2359 8.91456 23.237 9.33025V13.3729H3.17169Z" fill="#2478F8"/>
</g>
<g clip-path="url(#clip5_32_68)">
<path d="M22.8327 -0.499998L25.5957 2.28125V4.67952C25.5966 5.24842 25.4852 5.81191 25.2678 6.33767C25.0505 6.86343 24.7316 7.34114 24.3293 7.74342C23.9271 8.14569 23.4494 8.46462 22.9236 8.68193C22.3978 8.89923 21.8343 9.01064 21.2654 9.00976H4.33063C3.76173 9.01064 3.19825 8.89923 2.67249 8.68193C2.14672 8.46462 1.66901 8.14569 1.26674 7.74342C0.864464 7.34114 0.54553 6.86343 0.328226 6.33767C0.110922 5.81191 -0.000487619 5.24842 0.000389099 4.67952L0.328226 2.44067L2.67249 0.595545L22.8327 -0.499998ZM2.67249 0.595545L2.76738 4.67952C2.76843 5.09521 2.93403 5.49357 3.22797 5.78751C3.5219 6.08145 3.92027 6.24705 4.33596 6.2481H21.2641C21.6798 6.24705 22.0782 6.08145 22.3721 5.78751C22.666 5.49357 22.8316 5.09521 22.8327 4.67952V-0.499998L2.67249 0.595545Z" fill="#2478F8"/>
<path d="M3.5 8L2.5 7.5L0 5L5.13445e-06 2.33025C-0.000871584 1.76135 0.110536 1.19786 0.327841 0.672098C0.545145 0.146333 0.864072 -0.331375 1.26635 -0.73365C1.66862 -1.13592 2.14633 -1.45486 2.67209 -1.67216C3.19786 -1.88946 3.76135 -2.00087 4.33025 -1.99999H21.2651C21.834 -2.00087 22.3974 -1.88946 22.9232 -1.67216C23.449 -1.45486 23.9267 -1.13592 24.329 -0.73365C24.7312 -0.331375 25.0502 0.146333 25.2675 0.672098C25.4848 1.19786 25.5962 1.76135 25.5953 2.33025L24 6L21.5 8.5L3.5 8ZM22.8283 6.37287V2.33025C22.8273 1.91456 22.6617 1.51619 22.3677 1.22226C22.0738 0.928319 21.6754 0.762722 21.2597 0.761668H4.33158C3.91589 0.762722 3.51753 0.928319 3.22359 1.22226C2.92965 1.51619 2.76405 1.91456 2.763 2.33025V6.37287H22.8283Z" fill="#2478F8"/>
</g>
<defs>
<clipPath id="clip0_32_68">
<rect width="16" height="7" fill="white" transform="translate(77 9)"/>
</clipPath>
<clipPath id="clip1_32_68">
<rect width="26" height="4" fill="white"/>
</clipPath>
<clipPath id="clip2_32_68">
<rect width="21" height="5" fill="white"/>
</clipPath>
<clipPath id="clip3_32_68">
<rect width="15" height="5" fill="white" transform="translate(12.4102 6.25)"/>
</clipPath>
<clipPath id="clip4_32_68">
<rect width="26" height="5" fill="white" transform="matrix(-1 0 0 1 26 11)"/>
</clipPath>
<clipPath id="clip5_32_68">
<rect width="20" height="5" fill="white" transform="translate(0 4)"/>
</clipPath>
</defs>
</svg>
