<svg width="16" height="16" viewBox="0 0 16 16" fill="none" xmlns="http://www.w3.org/2000/svg">
<path fill-rule="evenodd" clip-rule="evenodd" d="M3.33398 3.33317C2.96579 3.33317 2.66732 3.63165 2.66732 3.99984V13.3332C2.66732 13.7014 2.96579 13.9998 3.33398 13.9998H12.6673C13.0355 13.9998 13.334 13.7014 13.334 13.3332V3.99984C13.334 3.63165 13.0355 3.33317 12.6673 3.33317H3.33398ZM1.33398 3.99984C1.33398 2.89527 2.22941 1.99984 3.33398 1.99984H12.6673C13.7719 1.99984 14.6673 2.89527 14.6673 3.99984V13.3332C14.6673 14.4377 13.7719 15.3332 12.6673 15.3332H3.33398C2.22941 15.3332 1.33398 14.4377 1.33398 13.3332V3.99984Z" fill="#D9D9D9"/>
<path fill-rule="evenodd" clip-rule="evenodd" d="M10.6673 0.666504C11.0355 0.666504 11.334 0.964981 11.334 1.33317V3.99984C11.334 4.36803 11.0355 4.6665 10.6673 4.6665C10.2991 4.6665 10.0007 4.36803 10.0007 3.99984V1.33317C10.0007 0.964981 10.2991 0.666504 10.6673 0.666504Z" fill="#D9D9D9"/>
<path fill-rule="evenodd" clip-rule="evenodd" d="M5.33398 0.666504C5.70217 0.666504 6.00065 0.964981 6.00065 1.33317V3.99984C6.00065 4.36803 5.70217 4.6665 5.33398 4.6665C4.96579 4.6665 4.66732 4.36803 4.66732 3.99984V1.33317C4.66732 0.964981 4.96579 0.666504 5.33398 0.666504Z" fill="#D9D9D9"/>
<path fill-rule="evenodd" clip-rule="evenodd" d="M1.33398 6.6665C1.33398 6.29831 1.63246 5.99984 2.00065 5.99984H14.0007C14.3688 5.99984 14.6673 6.29831 14.6673 6.6665C14.6673 7.03469 14.3688 7.33317 14.0007 7.33317H2.00065C1.63246 7.33317 1.33398 7.03469 1.33398 6.6665Z" fill="#D9D9D9"/>
</svg>
