<svg width="28" height="28" viewBox="0 0 28 28" fill="none" xmlns="http://www.w3.org/2000/svg">
<rect width="28" height="28" rx="10" fill="#DEE3FF"/>
<path fill-rule="evenodd" clip-rule="evenodd" d="M6.5 10.6667C6.5 9.74619 7.24619 9 8.16667 9H19.8333C20.7538 9 21.5 9.74619 21.5 10.6667V17.3333C21.5 18.2538 20.7538 19 19.8333 19H8.16667C7.24619 19 6.5 18.2538 6.5 17.3333V10.6667ZM8.16667 14.5833C8.16667 14.2612 8.42783 14 8.75 14H17.5833C17.9055 14 18.1667 14.2612 18.1667 14.5833C18.1667 14.9055 17.9055 15.1667 17.5833 15.1667H8.75C8.42783 15.1667 8.16667 14.9055 8.16667 14.5833ZM8.75 16.3333C8.42783 16.3333 8.16667 16.5945 8.16667 16.9167C8.16667 17.2388 8.42783 17.5 8.75 17.5H12.5833C12.9055 17.5 13.1667 17.2388 13.1667 16.9167C13.1667 16.5945 12.9055 16.3333 12.5833 16.3333H8.75Z" fill="#0D2242"/>
</svg>
