<svg width="13" height="12" viewBox="0 0 13 12" fill="none" xmlns="http://www.w3.org/2000/svg">
<path fill-rule="evenodd" clip-rule="evenodd" d="M5.66603 10.9145C5.66603 10.5924 5.9272 10.3312 6.24936 10.3312H11.4994C11.8215 10.3312 12.0827 10.5924 12.0827 10.9145C12.0827 11.2367 11.8215 11.4979 11.4994 11.4979H6.24936C5.9272 11.4979 5.66603 11.2367 5.66603 10.9145Z" fill="#2478F8"/>
<path fill-rule="evenodd" clip-rule="evenodd" d="M9.74936 1.51042C9.57588 1.51042 9.40951 1.57933 9.28684 1.702L2.10942 8.87942L1.80108 10.1128L3.03447 9.80446L10.2119 2.62704C10.2726 2.5663 10.3208 2.49419 10.3537 2.41483C10.3865 2.33547 10.4035 2.25042 10.4035 2.16452C10.4035 2.07862 10.3865 1.99357 10.3537 1.91421C10.3208 1.83485 10.2726 1.76274 10.2119 1.702C10.1511 1.64126 10.079 1.59308 9.99968 1.56021C9.92032 1.52734 9.83526 1.51042 9.74936 1.51042ZM8.46188 0.877041C8.80334 0.535581 9.26646 0.34375 9.74936 0.34375C9.98847 0.34375 10.2252 0.390846 10.4461 0.482348C10.667 0.57385 10.8678 0.707967 11.0368 0.877041C11.2059 1.04612 11.34 1.24684 11.4315 1.46774C11.523 1.68865 11.5701 1.92541 11.5701 2.16452C11.5701 2.40363 11.523 2.64039 11.4315 2.8613C11.34 3.0822 11.2059 3.28293 11.0368 3.452L3.74517 10.7437C3.67041 10.8184 3.57674 10.8715 3.47417 10.8971L1.14084 11.4804C0.942055 11.5301 0.731771 11.4719 0.586882 11.327C0.441994 11.1821 0.383749 10.9718 0.433445 10.773L1.01678 8.43971C1.04242 8.33714 1.09546 8.24347 1.17022 8.16871L8.46188 0.877041Z" fill="#2478F8"/>
</svg>
