<svg width="16" height="16" viewBox="0 0 16 16" fill="none" xmlns="http://www.w3.org/2000/svg">
<path fill-rule="evenodd" clip-rule="evenodd" d="M1.33203 3.99984C1.33203 3.63165 1.63051 3.33317 1.9987 3.33317H13.9987C14.3669 3.33317 14.6654 3.63165 14.6654 3.99984C14.6654 4.36803 14.3669 4.6665 13.9987 4.6665H1.9987C1.63051 4.6665 1.33203 4.36803 1.33203 3.99984Z" fill="#BFBFBF"/>
<path fill-rule="evenodd" clip-rule="evenodd" d="M6.66536 1.99984C6.48855 1.99984 6.31898 2.07007 6.19396 2.1951C6.06894 2.32012 5.9987 2.48969 5.9987 2.6665V3.33317H9.9987V2.6665C9.9987 2.48969 9.92846 2.32012 9.80344 2.1951C9.67841 2.07007 9.50884 1.99984 9.33203 1.99984H6.66536ZM11.332 3.33317V2.6665C11.332 2.13607 11.1213 1.62736 10.7462 1.25229C10.3712 0.877218 9.86246 0.666504 9.33203 0.666504H6.66536C6.13493 0.666504 5.62622 0.877218 5.25115 1.25229C4.87608 1.62736 4.66536 2.13607 4.66536 2.6665V3.33317H3.33203C2.96384 3.33317 2.66536 3.63165 2.66536 3.99984V13.3332C2.66536 13.8636 2.87608 14.3723 3.25115 14.7474C3.62622 15.1225 4.13493 15.3332 4.66536 15.3332H11.332C11.8625 15.3332 12.3712 15.1225 12.7462 14.7474C13.1213 14.3723 13.332 13.8636 13.332 13.3332V3.99984C13.332 3.63165 13.0336 3.33317 12.6654 3.33317H11.332ZM3.9987 4.6665V13.3332C3.9987 13.51 4.06894 13.6795 4.19396 13.8046C4.31898 13.9296 4.48855 13.9998 4.66536 13.9998H11.332C11.5088 13.9998 11.6784 13.9296 11.8034 13.8046C11.9285 13.6795 11.9987 13.51 11.9987 13.3332V4.6665H3.9987Z" fill="#BFBFBF"/>
</svg>
