<svg width="15" height="14" viewBox="0 0 15 14" fill="none" xmlns="http://www.w3.org/2000/svg">
<path fill-rule="evenodd" clip-rule="evenodd" d="M12.9993 8.41504C13.3215 8.41504 13.5827 8.67621 13.5827 8.99837V11.3317C13.5827 11.7958 13.3983 12.241 13.0701 12.5691C12.7419 12.8973 12.2968 13.0817 11.8327 13.0817H3.66602C3.20189 13.0817 2.75677 12.8973 2.42858 12.5691C2.10039 12.241 1.91602 11.7958 1.91602 11.3317V8.99837C1.91602 8.67621 2.17718 8.41504 2.49935 8.41504C2.82151 8.41504 3.08268 8.67621 3.08268 8.99837V11.3317C3.08268 11.4864 3.14414 11.6348 3.25354 11.7442C3.36293 11.8536 3.51131 11.915 3.66602 11.915H11.8327C11.9874 11.915 12.1358 11.8536 12.2452 11.7442C12.3546 11.6348 12.416 11.4864 12.416 11.3317V8.99837C12.416 8.67621 12.6772 8.41504 12.9993 8.41504Z" fill="#2478F8"/>
<path fill-rule="evenodd" clip-rule="evenodd" d="M11.0785 5.66923C11.3063 5.89703 11.3063 6.26638 11.0785 6.49418L8.16183 9.41085C7.93402 9.63866 7.56468 9.63866 7.33687 9.41085L4.4202 6.49418C4.1924 6.26638 4.1924 5.89703 4.4202 5.66923C4.64801 5.44142 5.01736 5.44142 5.24516 5.66923L7.74935 8.17341L10.2535 5.66923C10.4813 5.44142 10.8507 5.44142 11.0785 5.66923Z" fill="#2478F8"/>
<path fill-rule="evenodd" clip-rule="evenodd" d="M7.74935 1.41504C8.07152 1.41504 8.33268 1.67621 8.33268 1.99837V8.99837C8.33268 9.32054 8.07152 9.58171 7.74935 9.58171C7.42718 9.58171 7.16602 9.32054 7.16602 8.99837V1.99837C7.16602 1.67621 7.42718 1.41504 7.74935 1.41504Z" fill="#2478F8"/>
</svg>
