<svg width="15" height="14" viewBox="0 0 15 14" fill="none" xmlns="http://www.w3.org/2000/svg">
<path fill-rule="evenodd" clip-rule="evenodd" d="M13.0013 8.41504C13.3235 8.41504 13.5846 8.67621 13.5846 8.99837V11.3317C13.5846 11.7958 13.4003 12.241 13.0721 12.5691C12.7439 12.8973 12.2988 13.0817 11.8346 13.0817H3.66797C3.20384 13.0817 2.75872 12.8973 2.43053 12.5691C2.10234 12.241 1.91797 11.7958 1.91797 11.3317V8.99837C1.91797 8.67621 2.17914 8.41504 2.5013 8.41504C2.82347 8.41504 3.08464 8.67621 3.08464 8.99837V11.3317C3.08464 11.4864 3.14609 11.6348 3.25549 11.7442C3.36489 11.8536 3.51326 11.915 3.66797 11.915H11.8346C11.9893 11.915 12.1377 11.8536 12.2471 11.7442C12.3565 11.6348 12.418 11.4864 12.418 11.3317V8.99837C12.418 8.67621 12.6791 8.41504 13.0013 8.41504Z" fill="white"/>
<path fill-rule="evenodd" clip-rule="evenodd" d="M11.0804 5.66923C11.3083 5.89703 11.3083 6.26638 11.0804 6.49418L8.16378 9.41085C7.93598 9.63866 7.56663 9.63866 7.33882 9.41085L4.42216 6.49418C4.19435 6.26638 4.19435 5.89703 4.42216 5.66923C4.64996 5.44142 5.01931 5.44142 5.24711 5.66923L7.7513 8.17341L10.2555 5.66923C10.4833 5.44142 10.8526 5.44142 11.0804 5.66923Z" fill="white"/>
<path fill-rule="evenodd" clip-rule="evenodd" d="M7.7513 1.41504C8.07347 1.41504 8.33464 1.67621 8.33464 1.99837V8.99837C8.33464 9.32054 8.07347 9.58171 7.7513 9.58171C7.42914 9.58171 7.16797 9.32054 7.16797 8.99837V1.99837C7.16797 1.67621 7.42914 1.41504 7.7513 1.41504Z" fill="white"/>
</svg>
