<svg width="24" height="25" viewBox="0 0 24 25" fill="none" xmlns="http://www.w3.org/2000/svg">
<path fill-rule="evenodd" clip-rule="evenodd" d="M11 20.5002C11 19.9479 11.4477 19.5002 12 19.5002H21C21.5523 19.5002 22 19.9479 22 20.5002C22 21.0525 21.5523 21.5002 21 21.5002H12C11.4477 21.5002 11 21.0525 11 20.5002Z" fill="#030852"/>
<path fill-rule="evenodd" clip-rule="evenodd" d="M18 4.37891C17.7026 4.37891 17.4174 4.49705 17.2071 4.70733L4.90299 17.0115L4.37439 19.1259L6.48877 18.5973L18.7929 6.29312C18.897 6.189 18.9796 6.06538 19.036 5.92934C19.0923 5.79329 19.1213 5.64748 19.1213 5.50023C19.1213 5.35297 19.0923 5.20716 19.036 5.07112C18.9796 4.93507 18.897 4.81146 18.7929 4.70733C18.6888 4.60321 18.5652 4.52061 18.4291 4.46426C18.2931 4.40791 18.1473 4.37891 18 4.37891ZM15.7929 3.29312C16.3783 2.70776 17.1722 2.37891 18 2.37891C18.4099 2.37891 18.8158 2.45964 19.1945 2.6165C19.5732 2.77336 19.9173 3.00328 20.2071 3.29312C20.497 3.58296 20.7269 3.92705 20.8837 4.30575C21.0406 4.68444 21.1213 5.09033 21.1213 5.50023C21.1213 5.91012 21.0406 6.31601 20.8837 6.6947C20.7269 7.0734 20.497 7.41749 20.2071 7.70733L7.70713 20.2073C7.57897 20.3355 7.41839 20.4264 7.24256 20.4704L3.24256 21.4704C2.90178 21.5556 2.54129 21.4557 2.29291 21.2073C2.04453 20.959 1.94468 20.5985 2.02988 20.2577L3.02988 16.2577C3.07384 16.0819 3.16476 15.9213 3.29291 15.7931L15.7929 3.29312Z" fill="#030852"/>
</svg>
