<svg width="14" height="14" viewBox="0 0 14 14" fill="none" xmlns="http://www.w3.org/2000/svg">
<path fill-rule="evenodd" clip-rule="evenodd" d="M6.66798 11.915C6.66798 11.5928 6.92915 11.3317 7.25131 11.3317H12.5013C12.8235 11.3317 13.0846 11.5928 13.0846 11.915C13.0846 12.2372 12.8235 12.4983 12.5013 12.4983H7.25131C6.92915 12.4983 6.66798 12.2372 6.66798 11.915Z" fill="#2478F8"/>
<path fill-rule="evenodd" clip-rule="evenodd" d="M10.7513 2.5109C10.5778 2.5109 10.4115 2.57982 10.2888 2.70249L3.11138 9.8799L2.80303 11.1133L4.03642 10.8049L11.2138 3.62753C11.2746 3.56679 11.3228 3.49468 11.3556 3.41532C11.3885 3.33596 11.4054 3.25091 11.4054 3.16501C11.4054 3.07911 11.3885 2.99405 11.3556 2.91469C11.3228 2.83533 11.2746 2.76323 11.2138 2.70249C11.1531 2.64175 11.081 2.59357 11.0016 2.5607C10.9223 2.52782 10.8372 2.5109 10.7513 2.5109ZM9.46383 1.87753C9.8053 1.53607 10.2684 1.34424 10.7513 1.34424C10.9904 1.34424 11.2272 1.39133 11.4481 1.48284C11.669 1.57434 11.8697 1.70846 12.0388 1.87753C12.2079 2.0466 12.342 2.24732 12.4335 2.46823C12.525 2.68914 12.5721 2.9259 12.5721 3.16501C12.5721 3.40412 12.525 3.64088 12.4335 3.86179C12.342 4.08269 12.2079 4.28341 12.0388 4.45249L4.74713 11.7442C4.67237 11.8189 4.5787 11.8719 4.47613 11.8976L2.14279 12.4809C1.94401 12.5306 1.73372 12.4724 1.58884 12.3275C1.44395 12.1826 1.3857 11.9723 1.4354 11.7735L2.01873 9.4402C2.04437 9.33763 2.09741 9.24396 2.17217 9.1692L9.46383 1.87753Z" fill="#2478F8"/>
</svg>
