<svg width="20" height="21" viewBox="0 0 20 21" fill="none" xmlns="http://www.w3.org/2000/svg">
<path fill-rule="evenodd" clip-rule="evenodd" d="M9.16799 17.1665C9.16799 16.7063 9.54108 16.3332 10.0013 16.3332H17.5013C17.9616 16.3332 18.3347 16.7063 18.3347 17.1665C18.3347 17.6268 17.9616 17.9999 17.5013 17.9999H10.0013C9.54108 17.9999 9.16799 17.6268 9.16799 17.1665Z" fill="#2478F8"/>
<path fill-rule="evenodd" clip-rule="evenodd" d="M15.0013 3.7321C14.7535 3.7321 14.5158 3.83055 14.3406 4.00579L4.08712 14.2592L3.64663 16.0212L5.40861 15.5807L15.6621 5.32727C15.7488 5.2405 15.8177 5.13749 15.8646 5.02412C15.9116 4.91075 15.9358 4.78924 15.9358 4.66653C15.9358 4.54382 15.9116 4.42231 15.8646 4.30894C15.8177 4.19557 15.7488 4.09256 15.6621 4.00579C15.5753 3.91902 15.4723 3.85019 15.3589 3.80323C15.2455 3.75627 15.124 3.7321 15.0013 3.7321ZM13.1621 2.82727C13.6499 2.33947 14.3115 2.06543 15.0013 2.06543C15.3429 2.06543 15.6811 2.13271 15.9967 2.26343C16.3123 2.39414 16.599 2.58574 16.8406 2.82727C17.0821 3.06881 17.2737 3.35555 17.4044 3.67113C17.5351 3.98671 17.6024 4.32495 17.6024 4.66653C17.6024 5.00811 17.5351 5.34635 17.4044 5.66193C17.2737 5.97751 17.0821 6.26425 16.8406 6.50579L6.42391 16.9225C6.31711 17.0293 6.18329 17.105 6.03677 17.1416L2.70343 17.975C2.41945 18.046 2.11905 17.9628 1.91206 17.7558C1.70508 17.5488 1.62187 17.2484 1.69287 16.9644L2.5262 13.6311C2.56283 13.4846 2.6386 13.3507 2.7454 13.2439L13.1621 2.82727Z" fill="#2478F8"/>
</svg>
