<svg width="20" height="20" viewBox="0 0 20 20" fill="none" xmlns="http://www.w3.org/2000/svg">
<path fill-rule="evenodd" clip-rule="evenodd" d="M9.16603 16.6668C9.16603 16.2065 9.53913 15.8334 9.99937 15.8334H17.4994C17.9596 15.8334 18.3327 16.2065 18.3327 16.6668C18.3327 17.127 17.9596 17.5001 17.4994 17.5001H9.99937C9.53913 17.5001 9.16603 17.127 9.16603 16.6668Z" fill="#D9D9D9"/>
<path fill-rule="evenodd" clip-rule="evenodd" d="M14.9994 3.23234C14.7515 3.23234 14.5139 3.33079 14.3386 3.50603L4.08517 13.7595L3.64467 15.5215L5.40666 15.081L15.6601 4.82752C15.7469 4.74075 15.8157 4.63774 15.8627 4.52437C15.9096 4.411 15.9338 4.28948 15.9338 4.16677C15.9338 4.04406 15.9096 3.92255 15.8627 3.80918C15.8157 3.69581 15.7469 3.5928 15.6601 3.50603C15.5733 3.41926 15.4703 3.35043 15.357 3.30347C15.2436 3.25651 15.1221 3.23234 14.9994 3.23234ZM13.1601 2.32752C13.6479 1.83972 14.3095 1.56567 14.9994 1.56567C15.3409 1.56567 15.6792 1.63295 15.9948 1.76367C16.3103 1.89439 16.5971 2.08598 16.8386 2.32752C17.0802 2.56905 17.2718 2.8558 17.4025 3.17138C17.5332 3.48696 17.6005 3.82519 17.6005 4.16677C17.6005 4.50836 17.5332 4.84659 17.4025 5.16217C17.2718 5.47775 17.0802 5.7645 16.8386 6.00603L6.42196 16.4227C6.31516 16.5295 6.18134 16.6053 6.03481 16.6419L2.70148 17.4752C2.4175 17.5462 2.11709 17.463 1.91011 17.256C1.70313 17.049 1.61992 16.7486 1.69091 16.4647L2.52425 13.1313C2.56088 12.9848 2.63665 12.851 2.74344 12.7442L13.1601 2.32752Z" fill="#D9D9D9"/>
</svg>
