<svg width="16" height="16" viewBox="0 0 16 16" fill="none" xmlns="http://www.w3.org/2000/svg">
<path fill-rule="evenodd" clip-rule="evenodd" d="M1.91977 1.91879C2.29484 1.54372 2.80355 1.33301 3.33398 1.33301H6.66732C7.03551 1.33301 7.33398 1.63148 7.33398 1.99967C7.33398 2.36786 7.03551 2.66634 6.66732 2.66634H3.33398C3.15717 2.66634 2.9876 2.73658 2.86258 2.8616C2.73756 2.98663 2.66732 3.1562 2.66732 3.33301V12.6663C2.66732 12.8432 2.73756 13.0127 2.86258 13.1377C2.9876 13.2628 3.15717 13.333 3.33398 13.333H12.6673C12.8441 13.333 13.0137 13.2628 13.1387 13.1377C13.2637 13.0127 13.334 12.8432 13.334 12.6663V9.33301C13.334 8.96482 13.6325 8.66634 14.0007 8.66634C14.3688 8.66634 14.6673 8.96482 14.6673 9.33301V12.6663C14.6673 13.1968 14.4566 13.7055 14.0815 14.0806C13.7065 14.4556 13.1978 14.6663 12.6673 14.6663H3.33398C2.80355 14.6663 2.29484 14.4556 1.91977 14.0806C1.5447 13.7055 1.33398 13.1968 1.33398 12.6663V3.33301C1.33398 2.80257 1.5447 2.29387 1.91977 1.91879Z" fill="#85A5FF"/>
<path fill-rule="evenodd" clip-rule="evenodd" d="M14.0007 5.99967C14.3688 5.99967 14.6673 5.7012 14.6673 5.33301V1.99967C14.6673 1.63148 14.3688 1.33301 14.0007 1.33301H10.6673C10.2991 1.33301 10.0007 1.63148 10.0007 1.99967C10.0007 2.36786 10.2991 2.66634 10.6673 2.66634H13.334V5.33301C13.334 5.7012 13.6325 5.99967 14.0007 5.99967Z" fill="#85A5FF"/>
<path fill-rule="evenodd" clip-rule="evenodd" d="M6.19591 9.80441C6.45626 10.0648 6.87837 10.0648 7.13872 9.80441L14.4721 2.47108C14.7324 2.21073 14.7324 1.78862 14.4721 1.52827C14.2117 1.26792 13.7896 1.26792 13.5292 1.52827L6.19591 8.8616C5.93556 9.12195 5.93556 9.54406 6.19591 9.80441Z" fill="#85A5FF"/>
</svg>
