<svg width="18" height="18" viewBox="0 0 18 18" fill="none" xmlns="http://www.w3.org/2000/svg">
<path d="M16.5617 8.54687C15.9437 7.24503 15.2084 6.18331 14.3556 5.36171L13.4612 6.25609C14.1905 6.95306 14.8258 7.86484 15.3751 9.00038C13.9126 12.0273 11.8367 13.4652 8.99955 13.4652C8.14795 13.4652 7.36356 13.3341 6.64637 13.0718L5.67729 14.0409C6.67338 14.5009 7.7808 14.7309 8.99955 14.7309C12.3781 14.7309 14.8988 12.9713 16.5617 9.45214C16.6285 9.31061 16.6632 9.15603 16.6632 8.99951C16.6632 8.84298 16.6285 8.6884 16.5617 8.54687ZM15.4442 2.91062L14.6949 2.16038C14.6818 2.14731 14.6663 2.13694 14.6492 2.12986C14.6322 2.12278 14.6139 2.11914 14.5954 2.11914C14.5769 2.11914 14.5586 2.12278 14.5415 2.12986C14.5245 2.13694 14.5089 2.14731 14.4959 2.16038L12.5734 4.08202C11.5134 3.54062 10.3221 3.26992 8.99955 3.26992C5.62104 3.26992 3.10033 5.02949 1.43744 8.54863C1.3706 8.69016 1.33594 8.84474 1.33594 9.00126C1.33594 9.15779 1.3706 9.31237 1.43744 9.4539C2.10178 10.8531 2.90158 11.9747 3.83686 12.8185L1.97674 14.6781C1.95039 14.7045 1.93558 14.7402 1.93558 14.7775C1.93558 14.8148 1.95039 14.8506 1.97674 14.8769L2.72715 15.6273C2.75352 15.6537 2.78927 15.6685 2.82655 15.6685C2.86383 15.6685 2.89959 15.6537 2.92596 15.6273L15.4442 3.1096C15.4573 3.09654 15.4677 3.08103 15.4747 3.06396C15.4818 3.04689 15.4855 3.02859 15.4855 3.01011C15.4855 2.99163 15.4818 2.97333 15.4747 2.95626C15.4677 2.93919 15.4573 2.92368 15.4442 2.91062ZM2.62397 9.00038C4.08822 5.97343 6.1642 4.53554 8.99955 4.53554C9.95826 4.53554 10.83 4.70007 11.6208 5.03458L10.3851 6.27033C9.79983 5.95807 9.12973 5.84219 8.47362 5.93976C7.81752 6.03734 7.21014 6.3432 6.7411 6.81224C6.27206 7.28129 5.96619 7.88866 5.86862 8.54477C5.77104 9.20088 5.88693 9.87097 6.19918 10.4562L4.73281 11.9226C3.92123 11.2063 3.22162 10.2358 2.62397 9.00038ZM6.96049 9.00038C6.9608 8.69042 7.03422 8.3849 7.17479 8.10864C7.31535 7.83238 7.51911 7.59318 7.76949 7.41046C8.01987 7.22774 8.30983 7.10666 8.6158 7.05706C8.92177 7.00745 9.23512 7.03072 9.53041 7.12497L7.05383 9.60156C6.99176 9.40721 6.96027 9.2044 6.96049 9.00038Z" fill="#BFBFBF"/>
<path d="M8.9294 10.969C8.86858 10.969 8.80864 10.9662 8.74922 10.9607L7.82075 11.8892C8.37919 12.1031 8.98762 12.1506 9.57249 12.026C10.1574 11.9015 10.6936 11.6102 11.1165 11.1873C11.5393 10.7645 11.8306 10.2282 11.9552 9.64333C12.0797 9.05846 12.0322 8.45002 11.8184 7.89159L10.8899 8.82006C10.8953 8.87947 10.8981 8.93942 10.8981 9.00024C10.8983 9.25881 10.8475 9.51488 10.7486 9.75381C10.6497 9.99273 10.5047 10.2098 10.3218 10.3927C10.139 10.5755 9.92189 10.7205 9.68297 10.8194C9.44405 10.9183 9.18798 10.9691 8.9294 10.969Z" fill="#BFBFBF"/>
</svg>
