<svg width="14" height="14" viewBox="0 0 14 14" fill="none" xmlns="http://www.w3.org/2000/svg">
<path d="M11.7229 6.46994H8.02843V2.7755C8.02843 2.66855 7.94093 2.58105 7.83398 2.58105H6.66732C6.56037 2.58105 6.47287 2.66855 6.47287 2.7755V6.46994H2.77843C2.67148 6.46994 2.58398 6.55744 2.58398 6.66439V7.83106C2.58398 7.938 2.67148 8.0255 2.77843 8.0255H6.47287V11.7199C6.47287 11.8269 6.56037 11.9144 6.66732 11.9144H7.83398C7.94093 11.9144 8.02843 11.8269 8.02843 11.7199V8.0255H11.7229C11.8298 8.0255 11.9173 7.938 11.9173 7.83106V6.66439C11.9173 6.55744 11.8298 6.46994 11.7229 6.46994Z" fill="#2478F8"/>
</svg>
