<svg width="14" height="14" viewBox="0 0 14 14" fill="none" xmlns="http://www.w3.org/2000/svg">
<path fill-rule="evenodd" clip-rule="evenodd" d="M1.41602 3.74772C1.41602 3.42556 1.67718 3.16439 1.99935 3.16439H12.4993C12.8215 3.16439 13.0827 3.42556 13.0827 3.74772C13.0827 4.06989 12.8215 4.33105 12.4993 4.33105H1.99935C1.67718 4.33105 1.41602 4.06989 1.41602 3.74772Z" fill="#2478F8"/>
<path fill-rule="evenodd" clip-rule="evenodd" d="M6.08268 1.99772C5.92797 1.99772 5.7796 2.05918 5.6702 2.16858C5.56081 2.27797 5.49935 2.42635 5.49935 2.58105V3.16439H8.99935V2.58105C8.99935 2.42635 8.93789 2.27797 8.82849 2.16858C8.7191 2.05918 8.57072 1.99772 8.41602 1.99772H6.08268ZM10.166 3.16439V2.58105C10.166 2.11693 9.98164 1.67181 9.65345 1.34362C9.32526 1.01543 8.88014 0.831055 8.41602 0.831055H6.08268C5.61855 0.831055 5.17343 1.01543 4.84525 1.34362C4.51706 1.67181 4.33268 2.11693 4.33268 2.58105V3.16439H3.16602C2.84385 3.16439 2.58268 3.42556 2.58268 3.74772V11.9144C2.58268 12.3785 2.76706 12.8236 3.09525 13.1518C3.42343 13.48 3.86855 13.6644 4.33268 13.6644H10.166C10.6301 13.6644 11.0753 13.48 11.4035 13.1518C11.7316 12.8236 11.916 12.3785 11.916 11.9144V3.74772C11.916 3.42556 11.6548 3.16439 11.3327 3.16439H10.166ZM3.74935 4.33105V11.9144C3.74935 12.0691 3.81081 12.2175 3.9202 12.3269C4.0296 12.4363 4.17797 12.4977 4.33268 12.4977H10.166C10.3207 12.4977 10.4691 12.4363 10.5785 12.3269C10.6879 12.2175 10.7493 12.0691 10.7493 11.9144V4.33105H3.74935Z" fill="#2478F8"/>
</svg>
